<svg width="34" height="32" viewBox="0 0 34 32" fill="none" xmlns="http://www.w3.org/2000/svg">
<path d="M14.1759 9.75891V13.5356H9.93985V9.75891H14.1759ZM14.1759 8.5H9.93985C9.56536 8.5 9.20621 8.63263 8.9414 8.86873C8.6766 9.10482 8.52783 9.42503 8.52783 9.75891V13.5356C8.52783 13.8695 8.6766 14.1897 8.9414 14.4258C9.20621 14.6619 9.56536 14.7946 9.93985 14.7946H14.1759C14.5504 14.7946 14.9096 14.6619 15.1744 14.4258C15.4392 14.1897 15.5879 13.8695 15.5879 13.5356V9.75891C15.5879 9.42503 15.4392 9.10482 15.1744 8.86873C14.9096 8.63263 14.5504 8.5 14.1759 8.5V8.5Z" fill="#333333"/>
<path d="M24.0601 9.75891V13.5356H19.824V9.75891H24.0601ZM24.0601 8.5H19.824C19.4495 8.5 19.0904 8.63263 18.8256 8.86873C18.5608 9.10482 18.412 9.42503 18.412 9.75891V13.5356C18.412 13.8695 18.5608 14.1897 18.8256 14.4258C19.0904 14.6619 19.4495 14.7946 19.824 14.7946H24.0601C24.4346 14.7946 24.7937 14.6619 25.0585 14.4258C25.3233 14.1897 25.4721 13.8695 25.4721 13.5356V9.75891C25.4721 9.42503 25.3233 9.10482 25.0585 8.86873C24.7937 8.63263 24.4346 8.5 24.0601 8.5V8.5Z" fill="#333333"/>
<path d="M14.1759 18.4643V22.241H9.93985V18.4643H14.1759ZM14.1759 17.2054H9.93985C9.56536 17.2054 9.20621 17.338 8.9414 17.5741C8.6766 17.8102 8.52783 18.1304 8.52783 18.4643V22.241C8.52783 22.5749 8.6766 22.8951 8.9414 23.1312C9.20621 23.3673 9.56536 23.4999 9.93985 23.4999H14.1759C14.5504 23.4999 14.9096 23.3673 15.1744 23.1312C15.4392 22.8951 15.5879 22.5749 15.5879 22.241V18.4643C15.5879 18.1304 15.4392 17.8102 15.1744 17.5741C14.9096 17.338 14.5504 17.2054 14.1759 17.2054V17.2054Z" fill="#333333"/>
<path d="M24.0601 18.4643V22.241H19.824V18.4643H24.0601ZM24.0601 17.2054H19.824C19.4495 17.2054 19.0904 17.338 18.8256 17.5741C18.5608 17.8102 18.412 18.1304 18.412 18.4643V22.241C18.412 22.5749 18.5608 22.8951 18.8256 23.1312C19.0904 23.3673 19.4495 23.4999 19.824 23.4999H24.0601C24.4346 23.4999 24.7937 23.3673 25.0585 23.1312C25.3233 22.8951 25.4721 22.5749 25.4721 22.241V18.4643C25.4721 18.1304 25.3233 17.8102 25.0585 17.5741C24.7937 17.338 24.4346 17.2054 24.0601 17.2054V17.2054Z" fill="#333333"/>
</svg>
