<svg width="178" height="45" viewBox="0 0 178 45" fill="none" xmlns="http://www.w3.org/2000/svg">
<path d="M51.7545 34.3061H49.0416L47.0304 30.2139H36.8805L34.8693 34.3061H32.2266L40.7861 17.7021H43.2885L51.7545 34.3061ZM46.0247 28.3089L41.9788 20.0775L37.8628 28.3089H46.0247Z" fill="white"/>
<path d="M69.7625 29.2497L72.2415 29.7671C70.6512 33.0753 67.455 34.7294 62.6529 34.7294C60.7352 34.7294 59.0358 34.4159 57.5546 33.7887C56.0734 33.1459 54.8807 32.1502 53.9764 30.8019C53.0877 29.4378 52.6434 27.7994 52.6434 25.8865C52.6434 23.2681 53.5321 21.1672 55.3095 19.5836C57.0869 18 59.5191 17.2083 62.6061 17.2083C67.0496 17.2083 70.1445 18.8153 71.8907 22.0295L69.3883 22.5704C68.7802 21.4259 67.876 20.5949 66.6754 20.0775C65.4905 19.5444 64.1653 19.2779 62.6997 19.2779C61.9357 19.2779 61.2029 19.3484 60.5013 19.4895C59.7997 19.615 59.1137 19.8423 58.4433 20.1716C57.7885 20.5008 57.2194 20.9085 56.7361 21.3945C56.2527 21.8806 55.863 22.5077 55.5667 23.276C55.2705 24.0443 55.1224 24.9066 55.1224 25.863C55.1224 28.0894 55.8474 29.7827 57.2973 30.943C58.7473 32.0875 60.6417 32.6598 62.9803 32.6598C66.3012 32.6598 68.562 31.5231 69.7625 29.2497Z" fill="white"/>
<path d="M88.8693 19.6777H82.1105V34.3061H79.7718V19.6777H73.0364V17.7021H88.8693V19.6777Z" fill="white"/>
<path d="M90.9743 34.3061V17.7021H101.335C103.985 17.7021 105.825 18.4469 106.854 19.9364C107.415 20.7674 107.696 21.7159 107.696 22.7821C107.696 24.397 107.119 25.6435 105.965 26.5215C105.513 26.8665 105.006 27.1252 104.445 27.2976C103.884 27.4701 103.4 27.572 102.995 27.6034C102.59 27.6347 102.021 27.6504 101.288 27.6504H93.3597V34.3061H90.9743ZM93.3363 25.6749H100.96C101.506 25.6749 101.95 25.6592 102.293 25.6278C102.636 25.5965 103.026 25.4946 103.463 25.3221C103.899 25.1339 104.258 24.8674 104.539 24.5225C104.944 24.0364 105.147 23.4093 105.147 22.641C105.147 21.9354 104.952 21.3396 104.562 20.8536C104.266 20.493 103.868 20.2186 103.369 20.0305C102.886 19.8423 102.473 19.7404 102.13 19.7247C101.787 19.6934 101.311 19.6777 100.703 19.6777H93.3363V25.6749Z" fill="white"/>
<path d="M127.283 34.3061H124.57L122.559 30.2139H112.409L110.398 34.3061H107.755L116.314 17.7021H118.817L127.283 34.3061ZM121.553 28.3089L117.507 20.0775L113.391 28.3089H121.553Z" fill="white"/>
<path d="M135.061 25.9689C135.061 27.6105 133.773 28.9413 132.183 28.9413C130.594 28.9413 129.305 27.6105 129.305 25.9689C129.305 24.3273 130.594 22.9966 132.183 22.9966C133.773 22.9966 135.061 24.3273 135.061 25.9689Z" fill="#067BCB"/>
<path d="M156.379 34.2602H154.013V26.3412H141.34V34.2602H138.951V17.5212H141.317V24.3496H153.99V17.5212H156.379V34.2602Z" fill="white"/>
<path d="M160.127 17.5212H176.407V19.5603H162.516V24.397H170.293C171.261 24.397 172.105 24.4365 172.823 24.5156C173.541 24.5788 174.236 24.7211 174.908 24.9423C175.595 25.1478 176.149 25.4323 176.571 25.7959C177.008 26.1594 177.352 26.6415 177.602 27.2422C177.867 27.8428 178 28.562 178 29.3998C178 31.1859 177.477 32.4425 176.43 33.1696C175.384 33.8967 173.963 34.2602 172.167 34.2602H160.127V17.5212ZM162.516 26.3886V32.2212H172.237C173.331 32.2212 174.15 31.9762 174.697 31.4862C175.259 30.9804 175.54 30.2849 175.54 29.3998C175.54 28.7517 175.423 28.2222 175.189 27.8112C174.955 27.3844 174.603 27.0762 174.135 26.8865C173.682 26.681 173.229 26.5467 172.776 26.4835C172.339 26.4202 171.808 26.3886 171.183 26.3886H162.516Z" fill="white"/>
<path opacity="0.4" d="M22.5177 1.40808L13.6499 17.5213H31.3854L22.5177 1.40808Z" fill="#067BCB"/>
<path opacity="0.5" d="M22.5172 34.4167L31.385 17.5213L13.6495 17.5213L22.5172 34.4167Z" fill="#067BCB"/>
<path opacity="0.4" d="M8.38273 10.415L8.90887 26.1097L21.668 18.6696L8.38273 10.415Z" fill="#E8ECEE"/>
<path opacity="0.5" d="M22.1939 34.3643L21.6678 18.6696L8.90868 26.1097L22.1939 34.3643Z" fill="#E8ECEE"/>
<path opacity="0.4" d="M0.84069 22.5926L8.59887 34.3661L14.8862 22.6207L0.84069 22.5926Z" fill="#EF008A"/>
<path opacity="0.5" d="M22.6442 34.3943L14.886 22.6208L8.59865 34.3663L22.6442 34.3943Z" fill="#EF008A"/>
</svg>
