<svg width="34" height="32" viewBox="0 0 34 32" fill="none" xmlns="http://www.w3.org/2000/svg">
<rect width="34" height="32" rx="6" fill="#067BCB"/>
<path d="M9.9718 21.9274H24.0283V23.1129H9.9718V21.9274Z" fill="white"/>
<path d="M9.9718 17.7782H24.0283V18.9637H9.9718V17.7782Z" fill="white"/>
<path d="M22.8569 10.0726V13.629H11.1432V10.0726H22.8569ZM22.8569 8.88708H11.1432C10.8325 8.88708 10.5346 9.01198 10.3149 9.23431C10.0952 9.45663 9.9718 9.75816 9.9718 10.0726V13.629C9.9718 13.9434 10.0952 14.245 10.3149 14.4673C10.5346 14.6896 10.8325 14.8145 11.1432 14.8145H22.8569C23.1675 14.8145 23.4655 14.6896 23.6852 14.4673C23.9048 14.245 24.0283 13.9434 24.0283 13.629V10.0726C24.0283 9.75816 23.9048 9.45663 23.6852 9.23431C23.4655 9.01198 23.1675 8.88708 22.8569 8.88708V8.88708Z" fill="white"/>
</svg>
