<svg width="24" height="25" viewBox="0 0 24 25" fill="none" xmlns="http://www.w3.org/2000/svg">
<path d="M6.83742 15.1339C6.09298 13.8779 5.83258 12.3934 6.10512 10.959C6.37765 9.52461 7.16438 8.23903 8.3176 7.3436C9.47082 6.44817 10.9112 6.00447 12.3684 6.09579C13.8256 6.18711 15.1993 6.80718 16.2317 7.83958C17.2641 8.87199 17.8842 10.2457 17.9755 11.7029C18.0669 13.1601 17.6232 14.6005 16.7277 15.7537C15.8323 16.9069 14.5467 17.6937 13.1123 17.9662C11.678 18.2387 10.1934 17.9783 8.93742 17.2339V17.2339L6.86242 17.8214C6.77741 17.8463 6.68727 17.8478 6.60146 17.8258C6.51565 17.8039 6.43732 17.7593 6.37469 17.6966C6.31206 17.634 6.26742 17.5557 6.24547 17.4699C6.22352 17.384 6.22506 17.2939 6.24992 17.2089L6.83742 15.1339Z" stroke="#8F95B2" stroke-linecap="round" stroke-linejoin="round"/>
<path d="M12 12.5714C12.2761 12.5714 12.5 12.3476 12.5 12.0714C12.5 11.7953 12.2761 11.5714 12 11.5714C11.7239 11.5714 11.5 11.7953 11.5 12.0714C11.5 12.3476 11.7239 12.5714 12 12.5714Z" fill="#8F95B2"/>
<path d="M9 12.5714C9.27614 12.5714 9.5 12.3476 9.5 12.0714C9.5 11.7953 9.27614 11.5714 9 11.5714C8.72386 11.5714 8.5 11.7953 8.5 12.0714C8.5 12.3476 8.72386 12.5714 9 12.5714Z" fill="#8F95B2"/>
<path d="M15 12.5714C15.2761 12.5714 15.5 12.3476 15.5 12.0714C15.5 11.7953 15.2761 11.5714 15 11.5714C14.7239 11.5714 14.5 11.7953 14.5 12.0714C14.5 12.3476 14.7239 12.5714 15 12.5714Z" fill="#8F95B2"/>
</svg>
