<svg width="16" height="17" viewBox="0 0 16 17" fill="none" xmlns="http://www.w3.org/2000/svg">
<path d="M10 5.07143L4.79378 10.3652C4.62142 10.5554 4.52881 10.8046 4.53513 11.0612C4.54145 11.3179 4.64621 11.5622 4.82772 11.7437C5.00923 11.9252 5.25359 12.03 5.51021 12.0363C5.76683 12.0426 6.01605 11.95 6.20628 11.7777L12.4125 5.48393C12.7572 5.10348 12.9425 4.60503 12.9298 4.09179C12.9172 3.57856 12.7077 3.08983 12.3446 2.72681C11.9816 2.36378 11.4929 2.15426 10.9797 2.14163C10.4664 2.12899 9.96798 2.31421 9.58753 2.65893L3.38128 8.95268C2.81935 9.5146 2.50366 10.2767 2.50366 11.0714C2.50366 11.8661 2.81935 12.6282 3.38128 13.1902C3.9432 13.7521 4.70534 14.0678 5.50003 14.0678C6.29471 14.0678 7.05685 13.7521 7.61878 13.1902L12.75 8.07143" stroke="#8F95B2" stroke-linecap="round" stroke-linejoin="round"/>
</svg>
